<svg width="287" height="53" viewBox="0 0 287 53" fill="none" xmlns="http://www.w3.org/2000/svg">
<path d="M212.9 44.153C212.9 45.4725 212.812 46.5979 212.638 47.5293C212.483 48.4607 212.259 49.2174 211.968 49.7995C211.677 50.3816 211.318 50.8085 210.892 51.0802C210.484 51.3518 210.038 51.4876 209.553 51.4876C209.184 51.4876 208.777 51.3615 208.33 51.1093C207.884 50.857 207.457 50.5466 207.05 50.1779C206.662 49.8092 206.332 49.4308 206.06 49.0428C205.808 48.6547 205.682 48.3151 205.682 48.0241C205.682 47.83 205.701 47.7039 205.74 47.6457C205.798 47.6069 205.866 47.5875 205.944 47.5875C206.041 47.6069 206.148 47.636 206.264 47.6748C206.4 47.7136 206.545 47.733 206.701 47.733C207.244 47.733 207.632 47.3935 207.865 46.7143C208.117 46.0158 208.243 44.9098 208.243 43.3963V10.478C206.4 10.6332 204.624 10.9631 202.917 11.4676C201.209 11.9527 199.706 12.69 198.406 13.6796C197.106 14.6692 196.068 15.9595 195.292 17.5506C194.515 19.1223 194.127 21.0627 194.127 23.3717C194.127 24.4001 194.224 25.3315 194.418 26.1659C194.632 26.9808 194.903 27.7181 195.233 28.3779C195.563 29.0376 195.922 29.6197 196.31 30.1242C196.718 30.6287 197.115 31.075 197.503 31.4631C197.833 31.366 198.066 31.4048 198.202 31.5795C198.338 31.7541 198.406 31.9967 198.406 32.3071C198.406 32.6952 198.318 33.1027 198.144 33.5295C197.989 33.937 197.775 34.3154 197.503 34.6647C197.232 34.9945 196.921 35.2759 196.572 35.5087C196.242 35.7222 195.903 35.8289 195.553 35.8289C195.398 35.8289 195.243 35.8095 195.088 35.7707C194.952 35.7319 194.806 35.6445 194.651 35.5087C194.224 35.1983 193.71 34.6938 193.109 33.9952C192.507 33.2773 191.935 32.3944 191.392 31.3466C190.848 30.2988 190.383 29.1055 189.995 27.7667C189.606 26.4084 189.412 24.9434 189.412 23.3717C189.412 20.5 189.946 17.9678 191.013 15.7752C192.08 13.5826 193.565 11.7489 195.466 10.2743C197.368 8.78017 199.618 7.65476 202.218 6.89802C204.838 6.14127 207.7 5.7629 210.804 5.7629C211.522 5.7629 212.386 5.7726 213.395 5.79201C214.423 5.79201 215.442 5.80171 216.451 5.82111C217.46 5.84052 218.362 5.85992 219.157 5.87932C219.972 5.87932 220.525 5.87932 220.816 5.87932C221.068 5.87932 221.272 5.85992 221.427 5.82111C221.602 5.7629 221.738 5.70469 221.835 5.64648C221.951 5.58827 222.039 5.53976 222.097 5.50095C222.155 5.44274 222.204 5.41364 222.242 5.41364C222.339 5.41364 222.427 5.48155 222.504 5.61737C222.601 5.7338 222.679 5.88903 222.737 6.08306C222.815 6.25769 222.873 6.46143 222.912 6.69428C222.951 6.92712 222.97 7.15996 222.97 7.39281C222.97 7.74207 222.921 8.11074 222.824 8.49882C222.727 8.86749 222.582 9.20705 222.388 9.51751C222.194 9.80856 221.951 10.0511 221.66 10.2451C221.369 10.4392 221.03 10.5362 220.642 10.5362C220.428 10.5362 220.03 10.5362 219.448 10.5362C218.886 10.5168 218.236 10.4974 217.498 10.478C216.761 10.4586 215.985 10.4392 215.17 10.4198C214.355 10.4004 213.598 10.381 212.9 10.3616V44.153Z" fill="#01A7E1"/>
<path d="M237.027 45.2299C237.629 45.2299 238.143 45.0165 238.57 44.5896C239.016 44.1628 239.395 43.6292 239.705 42.9888C240.035 42.3485 240.297 41.6597 240.491 40.9223C240.704 40.1656 240.879 39.4574 241.015 38.7976C241.151 38.1767 241.345 37.7304 241.597 37.4588C241.869 37.1677 242.16 37.0222 242.47 37.0222C242.703 37.0222 242.936 37.0998 243.169 37.255C243.421 37.3909 243.644 37.5752 243.838 37.808C244.051 38.0409 244.216 38.3028 244.333 38.5939C244.469 38.885 244.536 39.176 244.536 39.4671C244.536 39.5059 244.536 39.5544 244.536 39.6126C244.536 39.6708 244.517 39.7581 244.478 39.8745C244.226 40.8641 243.877 41.9022 243.43 42.9888C243.004 44.0754 242.451 45.0747 241.772 45.9867C241.092 46.8987 240.268 47.6554 239.298 48.2569C238.347 48.8584 237.231 49.1592 235.951 49.1592C234.903 49.1592 233.991 48.9361 233.215 48.4898C232.439 48.0435 231.827 47.4517 231.381 46.7143C230.78 47.3935 230.052 47.9659 229.198 48.4316C228.364 48.9166 227.384 49.1592 226.259 49.1592C225.095 49.1592 224.066 48.9263 223.174 48.4607C222.301 47.995 221.563 47.3644 220.962 46.5688C220.36 45.7538 219.904 44.8031 219.594 43.7165C219.303 42.6105 219.157 41.4268 219.157 40.1656C219.157 37.6819 219.555 35.4505 220.351 33.4713C221.146 31.4922 222.204 29.8137 223.523 28.4361C224.842 27.039 226.346 25.9718 228.034 25.2345C229.742 24.4971 231.507 24.1285 233.331 24.1285C234.146 24.1285 234.806 24.3516 235.31 24.7979C235.815 25.2442 236.067 25.8554 236.067 26.6315C236.067 27.136 236.009 27.495 235.892 27.7084C235.795 27.9025 235.601 27.9995 235.31 27.9995C235.039 27.9995 234.757 27.9801 234.466 27.9413C234.175 27.9025 233.874 27.8831 233.564 27.8831C232.439 27.8831 231.294 28.1353 230.13 28.6398C228.966 29.1249 227.908 29.8817 226.957 30.91C226.026 31.919 225.26 33.2094 224.658 34.7811C224.057 36.3334 223.756 38.1864 223.756 40.3402C223.756 41.9119 224.057 43.1247 224.658 43.9784C225.26 44.8128 226.084 45.2299 227.132 45.2299C227.947 45.2299 228.626 44.9292 229.169 44.3277C229.713 43.7068 230.149 42.9791 230.479 42.1448V32.9474C230.479 32.6564 230.46 32.4138 230.421 32.2198C230.401 32.0258 230.372 31.8608 230.333 31.725C230.314 31.5892 230.295 31.4728 230.275 31.3757C230.256 31.2593 230.246 31.1526 230.246 31.0556C230.246 30.7451 230.392 30.5026 230.683 30.3279C230.993 30.1339 231.362 30.0369 231.789 30.0369C232.778 30.0369 233.564 30.2988 234.146 30.8227C234.728 31.3272 235.019 31.9384 235.019 32.6564V42.494C235.019 42.8239 235.058 43.1538 235.136 43.4836C235.213 43.7941 235.33 44.0851 235.485 44.3568C235.64 44.609 235.844 44.8225 236.096 44.9971C236.368 45.1523 236.678 45.2299 237.027 45.2299Z" fill="#01A7E1"/>
<path d="M244.449 18.8313C243.964 18.8313 243.498 18.7342 243.052 18.5402C242.625 18.3462 242.247 18.0842 241.917 17.7544C241.607 17.4245 241.354 17.0461 241.16 16.6193C240.966 16.173 240.869 15.6976 240.869 15.1931C240.869 14.6692 240.966 14.1841 241.16 13.7378C241.354 13.2915 241.607 12.9132 241.917 12.6027C242.247 12.2728 242.625 12.0206 243.052 11.8459C243.498 11.6519 243.964 11.5549 244.449 11.5549C244.973 11.5549 245.458 11.6519 245.904 11.8459C246.351 12.0206 246.729 12.2728 247.039 12.6027C247.369 12.9132 247.622 13.2915 247.796 13.7378C247.99 14.1841 248.087 14.6692 248.087 15.1931C248.087 15.6976 247.99 16.173 247.796 16.6193C247.622 17.0461 247.369 17.4245 247.039 17.7544C246.729 18.0842 246.351 18.3462 245.904 18.5402C245.458 18.7342 244.973 18.8313 244.449 18.8313ZM245.817 42.494C245.817 42.6299 245.827 42.853 245.846 43.1635C245.866 43.4545 245.924 43.7553 246.021 44.0657C246.118 44.3762 246.273 44.6478 246.486 44.8807C246.7 45.1135 247.001 45.2299 247.389 45.2299C247.971 45.2299 248.475 45.0165 248.902 44.5896C249.348 44.1628 249.727 43.6292 250.037 42.9888C250.367 42.3485 250.639 41.6597 250.852 40.9223C251.066 40.1656 251.24 39.4574 251.376 38.7976C251.492 38.1961 251.667 37.7595 251.9 37.4879C252.152 37.2162 252.414 37.0707 252.686 37.0513C252.977 37.0125 253.258 37.0804 253.53 37.255C253.821 37.4297 254.073 37.6625 254.286 37.9536C254.519 38.2252 254.684 38.5357 254.781 38.885C254.898 39.2342 254.917 39.5641 254.839 39.8745C254.568 40.8641 254.209 41.9022 253.763 42.9888C253.336 44.0754 252.783 45.0747 252.104 45.9867C251.425 46.8987 250.61 47.6554 249.659 48.2569C248.708 48.8584 247.592 49.1592 246.312 49.1592C245.516 49.1592 244.808 49.004 244.187 48.6935C243.566 48.4025 243.042 48.0047 242.616 47.5002C242.189 46.9957 241.859 46.4039 241.626 45.7247C241.413 45.0456 241.306 44.3277 241.306 43.5709V27.6502C241.306 27.0875 241.257 26.68 241.16 26.4278C241.083 26.1756 241.044 25.9427 241.044 25.7293C241.044 25.4382 241.199 25.2054 241.51 25.0307C241.82 24.8367 242.189 24.7397 242.616 24.7397C243.605 24.7397 244.381 25.0016 244.944 25.5255C245.526 26.03 245.817 26.6412 245.817 27.3592V42.494Z" fill="#01A7E1"/>
<path d="M256.12 29.8622C256.333 29.4548 256.537 28.9115 256.731 28.2323C256.945 27.5338 257.139 26.7674 257.313 25.933C257.507 25.0986 257.682 24.2255 257.837 23.3135C257.992 22.4015 258.128 21.509 258.245 20.6358C258.361 19.7626 258.448 18.9477 258.507 18.1909C258.584 17.4148 258.623 16.7551 258.623 16.2118C258.623 14.2326 258.478 12.787 258.186 11.8751C257.895 10.9437 257.507 10.478 257.022 10.478C256.867 10.478 256.731 10.5556 256.615 10.7108C256.498 10.8661 256.401 11.0698 256.324 11.3221C256.246 11.5549 256.188 11.8168 256.149 12.1079C256.13 12.3795 256.12 12.6318 256.12 12.8646V29.8622ZM264.589 38.8558C264.706 38.2737 264.881 37.8566 265.113 37.6043C265.366 37.3327 265.628 37.1871 265.899 37.1677C266.19 37.1289 266.481 37.1968 266.772 37.3715C267.063 37.5267 267.316 37.7401 267.529 38.0118C267.742 38.2834 267.898 38.5939 267.995 38.9432C268.111 39.273 268.131 39.6029 268.053 39.9328C267.781 40.7283 267.393 41.6597 266.889 42.7269C266.384 43.7941 265.744 44.8031 264.968 45.7538C264.192 46.7046 263.28 47.5099 262.232 48.1696C261.184 48.8293 259.981 49.1592 258.623 49.1592C257.478 49.1592 256.469 48.9652 255.596 48.5771C254.723 48.2084 253.986 47.6845 253.384 47.0054C252.802 46.3069 252.356 45.4822 252.045 44.5314C251.754 43.5612 251.609 42.4843 251.609 41.3007V14.1744C251.609 13.0684 251.745 12.0497 252.016 11.1183C252.307 10.1675 252.695 9.36228 253.18 8.70256C253.685 8.02343 254.267 7.49953 254.927 7.13086C255.586 6.74279 256.285 6.54875 257.022 6.54875C257.895 6.54875 258.633 6.71368 259.234 7.04354C259.836 7.354 260.331 7.77118 260.719 8.29508C261.107 8.81898 261.407 9.42049 261.621 10.0996C261.854 10.7787 262.019 11.4773 262.116 12.1952C262.213 12.8937 262.271 13.5923 262.29 14.2908C262.31 14.9699 262.319 15.5909 262.319 16.1536C262.319 17.6088 262.184 19.1417 261.912 20.7522C261.64 22.3433 261.291 23.915 260.864 25.4673C260.457 27.0196 260.001 28.5137 259.496 29.9496C259.011 31.366 258.536 32.6273 258.07 33.7333C257.624 34.8393 257.216 35.7416 256.848 36.4401C256.498 37.1386 256.256 37.5461 256.12 37.6625V41.1261C256.12 42.3291 256.372 43.3187 256.877 44.0948C257.381 44.8516 258.186 45.2299 259.292 45.2299C259.972 45.2299 260.602 45.0262 261.184 44.6187C261.786 44.1919 262.31 43.668 262.756 43.047C263.222 42.4067 263.61 41.7179 263.92 40.9805C264.231 40.2238 264.454 39.5156 264.589 38.8558Z" fill="#01A7E1"/>
<path d="M268.14 39.3215C267.985 39.9425 267.694 40.3305 267.267 40.4858C266.84 40.6216 266.413 40.6022 265.986 40.4275C265.579 40.2529 265.23 39.9522 264.939 39.5253C264.667 39.0984 264.589 38.6327 264.706 38.1282C264.997 36.8088 265.414 35.3535 265.957 33.7624C266.52 32.1519 267.073 30.5511 267.616 28.96C267.325 28.5137 267.092 28.0674 266.918 27.6211C266.743 27.1554 266.656 26.6703 266.656 26.1659C266.656 25.6614 266.84 25.1375 267.209 24.5942C267.597 24.0315 268.053 23.5173 268.577 23.0516C269.12 22.5859 269.673 22.2075 270.236 21.9165C270.818 21.606 271.313 21.4508 271.72 21.4508C272.438 21.4508 272.972 21.6933 273.321 22.1784C273.69 22.6635 273.874 23.3135 273.874 24.1285C273.874 24.5748 273.796 25.021 273.641 25.4673C273.505 25.8942 273.35 26.3017 273.175 26.6898C273.001 27.0584 272.836 27.3786 272.681 27.6502C272.545 27.9219 272.467 28.0965 272.448 28.1741C273.146 29.416 273.874 30.5123 274.631 31.4631C275.387 32.4138 276.076 33.3549 276.697 34.2863C277.337 35.2177 277.861 36.2072 278.269 37.255C278.676 38.3028 278.88 39.535 278.88 40.9514C278.88 41.3007 278.851 41.6597 278.793 42.0283C278.754 42.397 278.686 42.7463 278.589 43.0761C279.287 42.9403 279.898 42.7269 280.422 42.4358C280.966 42.1448 281.431 41.8149 281.819 41.4462C282.227 41.0582 282.557 40.641 282.809 40.1947C283.081 39.7484 283.304 39.2827 283.478 38.7976C283.692 38.2349 283.905 37.8275 284.119 37.5752C284.332 37.323 284.575 37.1968 284.846 37.1968C285.098 37.1968 285.351 37.2842 285.603 37.4588C285.875 37.614 286.107 37.8178 286.301 38.07C286.515 38.3222 286.68 38.5842 286.796 38.8558C286.932 39.1275 287 39.37 287 39.5835C287 39.8745 286.922 40.2238 286.767 40.6313C286.612 41.0388 286.398 41.4559 286.127 41.8828C285.875 42.3097 285.584 42.7269 285.254 43.1344C284.924 43.5224 284.584 43.862 284.235 44.153C283.304 44.9098 282.207 45.5501 280.946 46.074C279.685 46.5785 278.123 46.8987 276.26 47.0345C275.542 47.6554 274.689 48.1599 273.699 48.548C272.729 48.9555 271.633 49.1592 270.41 49.1592C269.789 49.1592 269.149 49.0816 268.489 48.9263C267.849 48.7711 267.228 48.5674 266.627 48.3151C266.045 48.0823 265.511 47.8203 265.026 47.5293C264.541 47.2382 264.153 46.9472 263.862 46.6561C263.125 45.9576 262.649 45.2591 262.436 44.5605C262.222 43.8426 262.174 43.2023 262.29 42.6396C262.387 42.0769 262.591 41.6209 262.901 41.2716C263.212 40.9029 263.532 40.7186 263.862 40.7186C264.056 40.7186 264.357 40.8059 264.764 40.9805C265.191 41.1358 265.676 41.3492 266.219 41.6209C266.763 41.8731 267.354 42.1448 267.995 42.4358C268.635 42.7269 269.275 43.0082 269.916 43.2799C270.556 43.5321 271.177 43.7456 271.778 43.9202C272.399 44.0754 272.962 44.153 273.466 44.153C273.796 43.765 274.097 43.2508 274.369 42.6105C274.64 41.9701 274.776 41.2716 274.776 40.5149C274.776 39.5835 274.65 38.72 274.398 37.9245C274.145 37.1289 273.816 36.3916 273.408 35.7125C273.001 35.0333 272.535 34.4027 272.011 33.8206C271.507 33.2191 270.992 32.6564 270.469 32.1325C270.003 33.2773 269.595 34.4124 269.246 35.5378C268.897 36.6438 268.528 37.9051 268.14 39.3215Z" fill="#01A7E1"/>
<path d="M11.4963 22.7023C12.2336 22.7023 13.0097 22.5761 13.8247 22.3239C14.6396 22.0522 15.4448 21.6933 16.2403 21.247C17.0553 20.7813 17.8217 20.238 18.5396 19.6171C19.2769 18.9768 19.9172 18.2879 20.4605 17.5506C21.0232 16.7939 21.4695 16.008 21.7993 15.1931C22.1292 14.3587 22.2941 13.5243 22.2941 12.69C22.2941 12.3407 22.2262 11.972 22.0904 11.584C21.9739 11.1959 21.7702 10.8369 21.4792 10.5071C21.2075 10.1772 20.8389 9.90556 20.3732 9.69212C19.9075 9.45927 19.3351 9.34285 18.656 9.34285C17.3366 9.34285 16.0754 9.65331 14.8724 10.2742C13.6888 10.8951 12.5829 11.7392 11.5545 12.8064C10.5261 13.8736 9.5851 15.1251 8.73137 16.561C7.89704 17.9775 7.17912 19.491 6.57763 21.1015C5.99554 22.712 5.53957 24.371 5.20971 26.0785C4.89927 27.786 4.74404 29.445 4.74404 31.0555C4.74404 32.8989 4.90897 34.6937 5.23882 36.4401C5.56867 38.167 6.09255 39.6999 6.81047 41.0387C7.54778 42.3776 8.50823 43.4545 9.69182 44.2694C10.8754 45.065 12.3306 45.4628 14.0575 45.4628C15.3187 45.4628 16.4538 45.2784 17.4627 44.9098C18.4717 44.5411 19.3351 44.1433 20.053 43.7164C20.771 43.2702 21.3239 42.8627 21.712 42.494C22.1001 42.1059 22.3135 41.9022 22.3523 41.8828C22.6045 41.4559 22.8859 41.2037 23.1963 41.126C23.5262 41.0484 23.8366 41.0872 24.1277 41.2425C24.4381 41.3977 24.7195 41.6402 24.9717 41.9701C25.2239 42.2806 25.418 42.6201 25.5538 42.9888C25.709 43.3575 25.7769 43.7261 25.7575 44.0948C25.7381 44.4635 25.612 44.7642 25.3792 44.9971C25.3404 45.0359 25.1948 45.1814 24.9426 45.4337C24.6904 45.6859 24.3314 45.9964 23.8657 46.365C23.4001 46.7337 22.8277 47.1218 22.1486 47.5293C21.4695 47.9561 20.703 48.3442 19.8493 48.6935C18.9956 49.0621 18.0448 49.3629 16.9971 49.5957C15.9687 49.8286 14.853 49.945 13.65 49.945C11.5157 49.945 9.6045 49.4987 7.91644 48.6062C6.22837 47.7136 4.79255 46.4524 3.60896 44.8224C2.44478 43.1731 1.55224 41.1843 0.931346 38.8558C0.310449 36.5274 0 33.9273 0 31.0555C0 29.1152 0.203732 27.1263 0.611196 25.0889C1.01866 23.0515 1.61045 21.0724 2.38657 19.1514C3.1821 17.211 4.14255 15.3871 5.26792 13.6796C6.3933 11.9526 7.6739 10.4489 9.10972 9.16822C10.5455 7.88758 12.1269 6.87859 13.8538 6.14125C15.5806 5.38451 17.4336 5.00613 19.4127 5.00613C20.4799 5.00613 21.4792 5.17107 22.4105 5.50093C23.3419 5.83079 24.1374 6.32558 24.7971 6.98531C25.4762 7.64503 26.0098 8.46969 26.3978 9.45927C26.7859 10.4295 26.9799 11.5646 26.9799 12.8646C26.9799 14.087 26.7374 15.2804 26.2523 16.4446C25.7866 17.6088 25.156 18.7148 24.3605 19.7626C23.565 20.791 22.6336 21.7418 21.5665 22.615C20.5187 23.4881 19.403 24.2449 18.2194 24.8852C17.0553 25.5061 15.8717 25.9912 14.6687 26.3405C13.4657 26.6897 12.3112 26.8644 11.2053 26.8644C10.4679 26.8644 9.83734 26.6412 9.31346 26.1949C8.80898 25.7292 8.55674 25.0016 8.55674 24.012C8.55674 23.7986 8.56644 23.5851 8.58584 23.3717C8.62465 23.1389 8.67316 22.9351 8.73137 22.7605C8.78957 22.5664 8.85749 22.4112 8.9351 22.2948C9.03211 22.1784 9.12913 22.1202 9.22614 22.1202C9.32316 22.1202 9.41047 22.1493 9.48808 22.2075C9.5851 22.2657 9.70152 22.3336 9.83734 22.4112C9.99256 22.4888 10.1963 22.5567 10.4485 22.615C10.7008 22.6732 11.05 22.7023 11.4963 22.7023Z" fill="#01A7E1"/>
<path d="M51.0203 37.6625C51.0591 37.4297 51.1852 37.2356 51.3986 37.0804C51.6315 36.9252 51.8934 36.8184 52.1845 36.7602C52.4755 36.702 52.7763 36.702 53.0867 36.7602C53.4166 36.8184 53.6979 36.9543 53.9307 37.1677C54.183 37.3617 54.3576 37.6431 54.4546 38.0118C54.571 38.361 54.5613 38.817 54.4255 39.3797C54.2509 40.1947 53.9598 40.9611 53.5524 41.6791C53.1643 42.3776 52.6695 42.9985 52.068 43.5418C51.4666 44.0851 50.7583 44.512 49.9434 44.8224C49.1285 45.1329 48.2165 45.2881 47.2076 45.2881C46.6643 45.2881 46.1501 45.259 45.665 45.2008C45.1994 45.1426 44.7434 45.0359 44.2971 44.8807C43.5598 46.1613 42.6091 47.1897 41.4449 47.9658C40.2807 48.7614 38.8449 49.1592 37.1374 49.1592C35.624 49.1592 34.324 48.8584 33.2374 48.2569C32.1508 47.6748 31.2486 46.8792 30.5307 45.8702C29.8128 44.8419 29.2792 43.6582 28.9299 42.3194C28.6001 40.9805 28.4351 39.5641 28.4351 38.07C28.4351 35.8774 28.6874 33.9176 29.1919 32.1907C29.7157 30.4443 30.3172 28.9697 30.9963 27.7666C31.6755 26.5442 32.3449 25.6128 33.0046 24.9725C33.6837 24.3322 34.1881 24.012 34.518 24.012C34.9061 24.012 35.2553 24.1867 35.5658 24.5359C35.8956 24.8658 36.1285 25.2636 36.2643 25.7292C36.4195 26.1755 36.4583 26.6315 36.3807 27.0972C36.3225 27.5629 36.0993 27.9219 35.7113 28.1741C35.4785 28.5428 35.1971 28.9697 34.8673 29.4547C34.5568 29.9398 34.2561 30.5511 33.965 31.2884C33.6934 32.0063 33.4605 32.8892 33.2665 33.937C33.0725 34.9848 32.9755 36.246 32.9755 37.7207C32.9755 38.9819 33.0822 40.0783 33.2956 41.0096C33.5284 41.941 33.8389 42.7269 34.227 43.3672C34.6344 43.9881 35.0904 44.4538 35.5949 44.7642C36.1188 45.0747 36.6717 45.2299 37.2538 45.2299C38.1076 45.2299 38.8061 45.0262 39.3494 44.6187C39.912 44.1918 40.3874 43.6388 40.7755 42.9597C39.3785 41.7567 38.3113 40.2335 37.574 38.3901C36.8561 36.5274 36.4971 34.5191 36.4971 32.3653C36.4971 31.4339 36.5941 30.5511 36.7882 29.7167C37.0016 28.8629 37.3023 28.1159 37.6904 27.4756C38.0979 26.8353 38.6023 26.3308 39.2038 25.9621C39.8053 25.574 40.5038 25.38 41.2994 25.38C41.9979 25.38 42.6576 25.6322 43.2785 26.1367C43.8994 26.6412 44.4427 27.3397 44.9083 28.2323C45.374 29.1249 45.733 30.1824 45.9852 31.4048C46.2568 32.6272 46.3927 33.9564 46.3927 35.3923C46.3927 36.4983 46.3247 37.5946 46.1889 38.6812C46.0531 39.7678 45.8397 40.8156 45.5486 41.8246C45.7621 41.9022 45.9561 41.9507 46.1307 41.9701C46.3247 41.9701 46.5285 41.9701 46.7419 41.9701C47.3822 41.9701 47.9449 41.8537 48.43 41.6208C48.9345 41.388 49.3613 41.0775 49.7106 40.6895C50.0598 40.3014 50.3412 39.8454 50.5546 39.3215C50.768 38.7976 50.9233 38.2446 51.0203 37.6625ZM39.6404 32.1325C39.6404 33.4713 39.8441 34.7422 40.2516 35.9453C40.6785 37.1483 41.2314 38.1961 41.9106 39.0887C42.027 38.1379 42.0852 37.2259 42.0852 36.3527C42.0852 35.3438 42.0658 34.4124 42.027 33.5586C42.0076 32.6855 41.9397 31.9384 41.8232 31.3175C41.7262 30.6966 41.5807 30.2115 41.3867 29.8622C41.212 29.4936 40.9695 29.3092 40.6591 29.3092C39.98 29.3092 39.6404 30.2503 39.6404 32.1325Z" fill="#01A7E1"/>
<path d="M51.0494 27.6502C51.0494 27.0875 51.0009 26.68 50.9039 26.4278C50.8263 26.1755 50.7874 25.9427 50.7874 25.7292C50.7874 25.4382 50.9427 25.2053 51.2531 25.0307C51.5636 24.8367 51.9322 24.7397 52.3591 24.7397C53.3486 24.7397 54.1248 25.0016 54.6875 25.5255C55.2695 26.03 55.5606 26.6412 55.5606 27.3592V43.3963C55.5606 43.959 55.6479 44.4053 55.8225 44.7351C55.9972 45.065 56.3464 45.2299 56.8703 45.2299C57.6076 45.2299 58.3449 44.9874 59.0822 44.5023C59.839 43.9978 60.5084 43.2799 61.0905 42.3485C61.692 41.3977 62.177 40.2432 62.5457 38.8849C62.9337 37.5267 63.1278 35.9841 63.1278 34.2572C63.1278 33.0541 63.0308 32.0548 62.8367 31.2593C62.6621 30.4637 62.4487 29.8234 62.1964 29.3383C61.9442 28.8338 61.6725 28.4555 61.3815 28.2032C61.1099 27.951 60.877 27.7472 60.683 27.592C60.5278 27.4756 60.3531 27.4077 60.1591 27.3883C59.9651 27.3494 59.8681 27.2427 59.8681 27.0681C59.8681 26.7964 59.936 26.4957 60.0718 26.1658C60.227 25.8166 60.4211 25.4964 60.6539 25.2053C60.8867 24.8949 61.1487 24.6426 61.4397 24.4486C61.7308 24.2352 62.0218 24.1284 62.3128 24.1284C62.9143 24.1284 63.5255 24.4292 64.1464 25.0307C64.7673 25.6128 65.33 26.389 65.8345 27.3592C66.3584 28.3293 66.7852 29.4353 67.1151 30.6772C67.445 31.8996 67.6099 33.1511 67.6099 34.4318C67.6099 36.4498 67.3382 38.3513 66.795 40.1365C66.2517 41.9216 65.4755 43.4836 64.4666 44.8224C63.477 46.1613 62.274 47.2188 60.8576 47.9949C59.4412 48.7711 57.8599 49.1592 56.1136 49.1592C55.1628 49.1592 54.3576 49.0039 53.6979 48.6935C53.0576 48.383 52.5434 47.9658 52.1554 47.4419C51.7673 46.918 51.486 46.3068 51.3113 45.6083C51.1367 44.8904 51.0494 44.1336 51.0494 43.3381V27.6502Z" fill="#01A7E1"/>
<path d="M84.1413 30.1533C84.1413 31.2593 83.9472 32.3944 83.5592 33.5586C83.1905 34.7228 82.6278 35.8288 81.8711 36.8766C81.1338 37.905 80.2122 38.8364 79.1062 39.6708C78.0196 40.4857 76.7584 41.1066 75.3226 41.5335C75.5166 42.038 75.7689 42.5231 76.0793 42.9888C76.4092 43.4351 76.7972 43.8232 77.2435 44.153C77.6898 44.4829 78.2039 44.7448 78.786 44.9389C79.3875 45.1329 80.0763 45.2299 80.8524 45.2299C82.0166 45.2299 83.0159 45.0165 83.8502 44.5896C84.6845 44.1433 85.3831 43.5612 85.9457 42.8433C86.5278 42.1253 86.9935 41.3201 87.3428 40.4275C87.692 39.535 87.954 38.6327 88.1286 37.7207C88.2644 37.061 88.536 36.6244 88.9435 36.411C89.3704 36.1781 89.7972 36.1199 90.2241 36.2363C90.6704 36.3527 91.0487 36.605 91.3592 36.9931C91.689 37.3617 91.8249 37.808 91.7667 38.3319C91.689 38.9334 91.5532 39.6223 91.3592 40.3984C91.1846 41.1746 90.9129 41.9604 90.5443 42.756C90.1756 43.5515 89.7002 44.3374 89.1181 45.1135C88.5555 45.8702 87.8569 46.5494 87.0226 47.1509C86.1883 47.7524 85.2084 48.2375 84.0831 48.6062C82.9577 48.9748 81.6674 49.1592 80.2122 49.1592C78.8539 49.1592 77.5345 48.8875 76.2539 48.3442C74.9927 47.8203 73.8674 47.0636 72.8778 46.074C71.9076 45.065 71.1218 43.8329 70.5203 42.3776C69.9382 40.9029 69.6472 39.2342 69.6472 37.3714C69.6472 35.4893 69.9091 33.743 70.433 32.1325C70.9569 30.5025 71.6457 29.0958 72.4994 27.9122C73.3532 26.7285 74.3233 25.8069 75.4099 25.1471C76.4965 24.468 77.6121 24.1284 78.7569 24.1284C79.5912 24.1284 80.3383 24.274 80.998 24.565C81.6771 24.8561 82.2495 25.2733 82.7151 25.8166C83.1808 26.3405 83.5301 26.9711 83.7629 27.7084C84.0151 28.4458 84.1413 29.2607 84.1413 30.1533ZM74.5368 37.1968C74.5368 37.3714 74.5465 37.5461 74.5659 37.7207C74.5853 37.8953 74.595 38.0797 74.595 38.2737C75.3323 37.9244 76.0017 37.4782 76.6032 36.9349C77.2047 36.3916 77.7189 35.7706 78.1457 35.0721C78.5726 34.3736 78.9024 33.6168 79.1353 32.8019C79.3681 31.9675 79.4845 31.1041 79.4845 30.2115C79.4845 29.5518 79.3681 29.0376 79.1353 28.6689C78.9218 28.3002 78.6211 28.1159 78.233 28.1159C77.748 28.1159 77.3114 28.2808 76.9233 28.6107C76.5547 28.9405 76.2248 29.3771 75.9338 29.9204C75.6621 30.4443 75.4293 31.0458 75.2353 31.725C75.0606 32.3847 74.9151 33.0541 74.7987 33.7333C74.6823 34.4124 74.6047 35.0624 74.5659 35.6833C74.5271 36.2848 74.5174 36.7893 74.5368 37.1968Z" fill="#01A7E1"/>
<path d="M101.109 49.1592C100.411 49.1592 99.6928 49.0524 98.9555 48.839C98.2376 48.6256 97.5779 48.2569 96.9764 47.733C96.3943 47.2091 95.9092 46.5203 95.5211 45.6665C95.1525 44.7933 94.9682 43.697 94.9682 42.3776C94.9682 40.4566 95.2204 38.4289 95.7249 36.2945C96.2488 34.1407 96.9958 31.7735 97.9659 29.1928H93.4256H92.7562C92.7368 29.7749 92.698 30.5122 92.6398 31.4048C92.601 32.2974 92.5234 33.2482 92.407 34.2572C92.2905 35.2661 92.1353 36.2848 91.9413 37.3132C91.7667 38.3416 91.5435 39.2924 91.2719 40.1656C91.0779 40.7865 90.7674 41.1455 90.3405 41.2425C89.9331 41.3395 89.5256 41.2716 89.1181 41.0387C88.7107 40.7865 88.3808 40.4275 88.1286 39.9618C87.8764 39.4961 87.8181 39.0111 87.954 38.5066C88.1092 37.905 88.245 37.1774 88.3614 36.3236C88.4778 35.4505 88.5652 34.5385 88.6234 33.5877C88.701 32.6175 88.7592 31.6571 88.798 30.7063C88.8368 29.7361 88.8659 28.8726 88.8853 28.1159C88.148 27.7084 87.5368 27.1942 87.0517 26.5733C86.5666 25.933 86.3241 25.1762 86.3241 24.3031C86.3241 23.8956 86.4017 23.5269 86.5569 23.1971C86.7316 22.8478 86.9547 22.5567 87.2263 22.3239C87.498 22.0717 87.8181 21.8873 88.1868 21.7709C88.5555 21.6351 88.9338 21.5672 89.3219 21.5672C89.6711 21.5672 90.0301 21.6157 90.3987 21.7127C90.7868 21.8097 91.1458 21.9843 91.4756 22.2366C91.8249 22.4888 92.1353 22.8187 92.407 23.2262C92.6786 23.6336 92.9017 24.1381 93.0764 24.7397C93.5614 24.7979 93.9689 24.8464 94.2988 24.8852C94.648 24.9046 94.939 24.924 95.1719 24.9434C95.4047 24.9628 95.5988 24.9725 95.754 24.9725C95.9092 24.9725 96.0644 24.9725 96.2197 24.9725H99.3338C99.5085 24.9725 99.7607 25.0792 100.091 25.2927C100.44 25.5061 100.779 25.7875 101.109 26.1367C101.439 26.4666 101.711 26.8256 101.924 27.2136C102.157 27.6017 102.244 27.9704 102.186 28.3196C102.186 28.4361 102.118 28.7174 101.982 29.1637C101.847 29.61 101.682 30.1727 101.488 30.8518C101.294 31.5309 101.08 32.3168 100.847 33.2094C100.614 34.0825 100.401 35.0042 100.207 35.9744C100.013 36.9446 99.848 37.9536 99.7122 39.0014C99.5764 40.0297 99.5085 41.0387 99.5085 42.0283C99.5085 42.4358 99.557 42.8336 99.654 43.2216C99.751 43.6097 99.8965 43.959 100.091 44.2694C100.285 44.5605 100.527 44.7933 100.818 44.968C101.129 45.1426 101.488 45.2299 101.895 45.2299C102.574 45.2299 103.156 45.0165 103.641 44.5896C104.126 44.1627 104.534 43.6291 104.864 42.9888C105.194 42.3485 105.455 41.6596 105.65 40.9223C105.863 40.1656 106.038 39.4573 106.173 38.7976C106.29 38.1767 106.484 37.7304 106.756 37.4588C107.027 37.1677 107.308 37.0222 107.6 37.0222C107.832 37.0222 108.075 37.0998 108.327 37.255C108.579 37.3908 108.803 37.5752 108.997 37.808C109.21 38.0409 109.375 38.3028 109.491 38.5939C109.627 38.8849 109.695 39.176 109.695 39.467C109.695 39.5641 109.685 39.6417 109.666 39.6999C109.647 39.7581 109.637 39.8163 109.637 39.8745C109.365 40.8641 109.006 41.9022 108.56 42.9888C108.133 44.0754 107.58 45.0747 106.901 45.9867C106.222 46.8986 105.407 47.6554 104.456 48.2569C103.505 48.8584 102.39 49.1592 101.109 49.1592Z" fill="#01A7E1"/>
<path d="M152.785 35.4607C149.097 37.8382 144.14 36.7141 141.713 32.9499C139.287 29.1858 140.31 24.207 143.997 21.8294C147.685 19.4519 152.642 20.576 155.069 24.3402C157.495 28.1043 156.473 33.0831 152.785 35.4607Z" fill="#FF4C41"/>
<path d="M134.618 14.6104C135.955 7.98757 140.236 5.40481 145.644 1.47184C146.217 1.05557 146.962 0.571145 147.603 0.16738C147.883 -0.00896699 148.237 0.374708 148.061 0.655929C147.389 1.72584 146.576 3.25838 146.457 4.56581C146.184 7.5574 146.413 11.83 149.851 16.2466C152.799 20.0335 154.729 23.5897 155.22 24.5269C155.292 24.6641 155.247 24.8284 155.119 24.9106L142.213 33.2307C142.085 33.3132 141.92 33.2906 141.825 33.1675C140.621 31.6087 133.197 21.6416 134.618 14.6104Z" fill="#FF4C41"/>
<path d="M146.344 40.6611C143.744 44.1959 138.712 44.9102 135.105 42.2565C131.497 39.6029 130.68 34.5862 133.28 31.0514C135.88 27.5167 140.912 26.8024 144.52 29.4561C148.127 32.1097 148.944 37.1264 146.344 40.6611Z" fill="#E64B1A"/>
<path d="M121.945 27.6449C120.837 20.9796 123.918 17.0421 127.572 11.4414C127.958 10.8486 128.482 10.1307 128.937 9.52514C129.136 9.26068 129.604 9.49291 129.539 9.81858C129.293 11.0576 129.079 12.779 129.433 14.0432C130.243 16.9359 131.978 20.847 136.763 23.7503C140.866 26.2396 143.936 28.8756 144.728 29.5767C144.844 29.6794 144.86 29.8489 144.77 29.9712L135.672 42.3408C135.582 42.4636 135.419 42.5013 135.286 42.4201C133.606 41.3921 123.121 34.7211 121.945 27.6449Z" fill="#E64B1A"/>
<path d="M147.844 42.9065C147.844 47.2944 144.214 50.8516 139.736 50.8516C135.257 50.8516 131.627 47.2944 131.627 42.9065C131.627 38.5185 135.257 34.9613 139.736 34.9613C144.214 34.9613 147.844 38.5185 147.844 42.9065Z" fill="#F17721"/>
<path d="M120.477 46.879C115.636 42.1661 115.784 37.1689 115.409 30.4922C115.369 29.7855 115.366 28.8968 115.374 28.1393C115.377 27.8084 115.892 27.7181 116.033 28.0189C116.568 29.1633 117.416 30.6767 118.45 31.4853C120.816 33.3355 124.532 35.4579 130.106 34.9613C134.886 34.5355 138.921 34.8399 139.974 34.9353C140.129 34.9493 140.242 35.0762 140.242 35.228V50.5835C140.242 50.7359 140.134 50.8626 139.979 50.8758C138.016 51.0433 125.617 51.8825 120.477 46.879Z" fill="#F17721"/>
<path d="M146.593 35.4607C150.281 37.8382 155.238 36.7141 157.665 32.9499C160.091 29.1858 159.068 24.207 155.381 21.8295C151.693 19.4519 146.736 20.576 144.309 24.3402C141.883 28.1043 142.905 33.0831 146.593 35.4607Z" fill="#FF4C41"/>
<path d="M164.76 14.6104C163.423 7.98757 159.142 5.40481 153.734 1.47184C153.161 1.05557 152.416 0.571145 151.775 0.16738C151.496 -0.00896699 151.141 0.374708 151.317 0.655929C151.989 1.72584 152.802 3.25838 152.921 4.56581C153.194 7.5574 152.965 11.83 149.527 16.2466C146.579 20.0335 144.649 23.5897 144.158 24.5269C144.086 24.6641 144.131 24.8284 144.259 24.9106L157.165 33.2307C157.293 33.3132 157.458 33.2906 157.553 33.1675C158.757 31.6087 166.181 21.6416 164.76 14.6104Z" fill="#FF4C41"/>
<path d="M153.034 40.6611C155.634 44.1959 160.666 44.9102 164.273 42.2565C167.881 39.6029 168.698 34.5862 166.098 31.0514C163.498 27.5167 158.466 26.8024 154.858 29.4561C151.251 32.1097 150.434 37.1264 153.034 40.6611Z" fill="#E64B1A"/>
<path d="M177.433 27.6449C178.541 20.9796 175.46 17.0421 171.806 11.4414C171.42 10.8486 170.896 10.1307 170.441 9.52514C170.242 9.26068 169.774 9.49291 169.839 9.81858C170.085 11.0576 170.299 12.779 169.945 14.0432C169.135 16.9359 167.4 20.847 162.615 23.7503C158.512 26.2396 155.442 28.8756 154.65 29.5767C154.534 29.6794 154.518 29.8489 154.608 29.9712L163.706 42.3408C163.796 42.4636 163.959 42.5013 164.092 42.4201C165.772 41.3921 176.257 34.7211 177.433 27.6449Z" fill="#E64B1A"/>
<path d="M151.534 42.9065C151.534 47.2944 155.164 50.8516 159.642 50.8516C164.121 50.8516 167.751 47.2944 167.751 42.9065C167.751 38.5185 164.121 34.9613 159.642 34.9613C155.164 34.9613 151.534 38.5185 151.534 42.9065Z" fill="#F17721"/>
<path d="M178.901 46.879C183.742 42.1661 183.594 37.1689 183.969 30.4922C184.009 29.7855 184.012 28.8968 184.004 28.1393C184.001 27.8084 183.486 27.7181 183.345 28.0189C182.81 29.1633 181.962 30.6767 180.928 31.4853C178.561 33.3355 174.846 35.4579 169.272 34.9613C164.492 34.5355 160.457 34.8399 159.404 34.9353C159.249 34.9493 159.136 35.0762 159.136 35.228V50.5835C159.136 50.7359 159.244 50.8626 159.399 50.8758C161.362 51.0433 173.761 51.8825 178.901 46.879Z" fill="#F17721"/>
<path d="M161.201 45.8575C161.201 51.016 156.047 53 149.689 53C143.331 53 138.177 51.016 138.177 45.8575C138.177 40.6991 143.331 34.3197 149.689 34.3197C156.047 34.3197 161.201 40.6991 161.201 45.8575Z" fill="#FFA630"/>
<path d="M160.223 35.5216C160.223 40.0762 149.689 43.7684 149.689 43.7684C149.689 43.7684 139.154 40.0762 139.154 35.5216C139.154 30.967 143.871 31.3982 149.689 31.3982C155.507 31.3982 160.223 30.967 160.223 35.5216Z" fill="#EBEBEB"/>
<path d="M159.399 26.7604C159.399 32.141 155.037 34.3307 149.657 34.3307C144.276 34.3307 139.915 32.141 139.915 26.7604C139.915 21.3797 144.276 14.8457 149.657 14.8457C155.037 14.8457 159.399 21.3797 159.399 26.7604Z" fill="#FFA630"/>
<path d="M131.958 15.2006C131.761 14.9499 131.951 14.5837 132.27 14.6004L147.397 15.3936C147.666 15.4077 147.831 15.6955 147.707 15.935L141.947 27.0469C141.823 27.2864 141.492 27.3176 141.326 27.1056L131.958 15.2006Z" fill="#FFA630"/>
<path d="M167.417 15.2006C167.614 14.9499 167.424 14.5837 167.105 14.6004L151.978 15.3936C151.709 15.4077 151.544 15.6955 151.668 15.935L157.428 27.0469C157.552 27.2864 157.883 27.3176 158.049 27.1056L167.417 15.2006Z" fill="#FFA630"/>
<path d="M147.163 33.3594C146.638 31.681 147.892 29.9754 149.65 29.9754H149.728C151.486 29.9754 152.74 31.681 152.215 33.3594C151.875 34.4476 150.868 35.1885 149.728 35.1885H149.65C148.51 35.1885 147.503 34.4476 147.163 33.3594Z" fill="#EBEBEB"/>
<path d="M152.191 25.7719V29.5493C152.191 29.7942 152.477 29.9228 152.656 29.7581L158.502 24.3619C158.718 24.1625 158.524 23.8028 158.242 23.8808L152.396 25.4997C152.275 25.5332 152.191 25.6447 152.191 25.7719Z" fill="#DB4212"/>
<path d="M153.367 23.072C153.489 23.5542 153.032 24.1023 152.347 24.2961C151.661 24.49 151.006 24.2561 150.883 23.7739C150.761 23.2916 151.217 22.7435 151.903 22.5497C152.589 22.3559 153.244 22.5897 153.367 23.072Z" fill="#DB4212"/>
<path d="M147.078 25.7719V29.5493C147.078 29.7942 146.792 29.9228 146.613 29.7581L140.767 24.3619C140.551 24.1625 140.746 23.8028 141.027 23.8808L146.873 25.4997C146.994 25.5332 147.078 25.6447 147.078 25.7719Z" fill="#DB4212"/>
<path d="M145.903 23.072C145.78 23.5542 146.237 24.1023 146.923 24.2961C147.608 24.49 148.264 24.2561 148.386 23.7739C148.509 23.2916 148.052 22.7435 147.366 22.5497C146.681 22.3559 146.025 22.5897 145.903 23.072Z" fill="#DB4212"/>
<path d="M150.769 31.0329C150.769 31.3779 149.766 31.6045 149.766 31.6045C149.766 31.6045 148.87 31.3779 148.87 31.0329C148.87 30.6879 149.39 30.6595 149.881 30.6595C150.372 30.6595 150.769 30.6879 150.769 31.0329Z" fill="#DB4212"/>
<path d="M143.39 10.5349H155.879V19.4406C155.879 19.4406 155.011 22.2644 149.635 22.2644C144.259 22.2644 143.39 19.4406 143.39 19.4406V10.5349Z" fill="#0374BA"/>
<path d="M149.689 5.32172L162.613 11.5123L149.689 17.7029L136.765 11.5123L149.689 5.32172Z" fill="#01A7E1"/>
</svg>
